<svg id="visual" viewBox="0 0 900 600" width="900" height="600" xmlns="http://www.w3.org/2000/svg" xmlns:xlink="http://www.w3.org/1999/xlink" version="1.1"><g stroke-width="1" stroke-linejoin="bevel"><path d="M474.9 314L478.9 352L559.7 358Z" fill="#8e3434" stroke="#8e3434"></path><path d="M559.7 358L576.7 300L474.9 314Z" fill="#7c3232" stroke="#7c3232"></path><path d="M576.7 300L488.9 248L474.9 314Z" fill="#733131" stroke="#733131"></path><path d="M478.9 352L507.9 440L559.7 358Z" fill="#973535" stroke="#973535"></path><path d="M507.9 440L589.7 428L559.7 358Z" fill="#8e3434" stroke="#8e3434"></path><path d="M559.7 358L642.5 318L576.7 300Z" fill="#853333" stroke="#853333"></path><path d="M638.5 386L642.5 318L559.7 358Z" fill="#a93636" stroke="#a93636"></path><path d="M576.7 300L548.7 207L488.9 248Z" fill="#8e3434" stroke="#8e3434"></path><path d="M488.9 248L407.1 282L474.9 314Z" fill="#733131" stroke="#733131"></path><path d="M474.9 314L415.1 394L478.9 352Z" fill="#973535" stroke="#973535"></path><path d="M478.9 352L415.1 394L507.9 440Z" fill="#a03636" stroke="#a03636"></path><path d="M662.5 204L548.7 207L576.7 300Z" fill="#a93636" stroke="#a93636"></path><path d="M488.9 248L418.1 219L407.1 282Z" fill="#973535" stroke="#973535"></path><path d="M407.1 282L415.1 394L474.9 314Z" fill="#c53737" stroke="#c53737"></path><path d="M589.7 428L638.5 386L559.7 358Z" fill="#6a3030" stroke="#6a3030"></path><path d="M432.1 146L418.1 219L488.9 248Z" fill="#a93636" stroke="#a93636"></path><path d="M335.3 222L345.3 322L407.1 282Z" fill="#a03636" stroke="#a03636"></path><path d="M407.1 282L345.3 322L415.1 394Z" fill="#bc3737" stroke="#bc3737"></path><path d="M662.5 204L578.7 158L548.7 207Z" fill="#a03636" stroke="#a03636"></path><path d="M479.9 126L432.1 146L488.9 248Z" fill="#7c3232" stroke="#7c3232"></path><path d="M589.7 428L655.5 457L638.5 386Z" fill="#bc3737" stroke="#bc3737"></path><path d="M754.4 390L716.4 290L642.5 318Z" fill="#973535" stroke="#973535"></path><path d="M586.7 517L655.5 457L589.7 428Z" fill="#c53737" stroke="#c53737"></path><path d="M716.4 290L662.5 204L642.5 318Z" fill="#bc3737" stroke="#bc3737"></path><path d="M642.5 318L662.5 204L576.7 300Z" fill="#bc3737" stroke="#bc3737"></path><path d="M303.3 450L393.1 473L415.1 394Z" fill="#a03636" stroke="#a03636"></path><path d="M415.1 394L393.1 473L507.9 440Z" fill="#b33637" stroke="#b33637"></path><path d="M507.9 440L586.7 517L589.7 428Z" fill="#c53737" stroke="#c53737"></path><path d="M393.1 473L482.9 520L507.9 440Z" fill="#b33637" stroke="#b33637"></path><path d="M754.4 390L642.5 318L638.5 386Z" fill="#b33637" stroke="#b33637"></path><path d="M482.9 520L586.7 517L507.9 440Z" fill="#bc3737" stroke="#bc3737"></path><path d="M479.9 126L488.9 248L548.7 207Z" fill="#6a3030" stroke="#6a3030"></path><path d="M418.1 219L335.3 222L407.1 282Z" fill="#853333" stroke="#853333"></path><path d="M578.7 158L479.9 126L548.7 207Z" fill="#b33637" stroke="#b33637"></path><path d="M326.3 135L335.3 222L418.1 219Z" fill="#6a3030" stroke="#6a3030"></path><path d="M662.5 204L641.5 150L578.7 158Z" fill="#8e3434" stroke="#8e3434"></path><path d="M578.7 158L583.7 94L479.9 126Z" fill="#c53737" stroke="#c53737"></path><path d="M742.4 171L641.5 150L662.5 204Z" fill="#8e3434" stroke="#8e3434"></path><path d="M319.3 513L392.1 502L393.1 473Z" fill="#6a3030" stroke="#6a3030"></path><path d="M393.1 473L392.1 502L482.9 520Z" fill="#7c3232" stroke="#7c3232"></path><path d="M259.5 362L303.3 365L261.5 276Z" fill="#c53737" stroke="#c53737"></path><path d="M345.3 322L303.3 365L415.1 394Z" fill="#b33637" stroke="#b33637"></path><path d="M716.4 290L724.4 226L662.5 204Z" fill="#8e3434" stroke="#8e3434"></path><path d="M721.4 471L754.4 390L655.5 457Z" fill="#bc3737" stroke="#bc3737"></path><path d="M655.5 457L754.4 390L638.5 386Z" fill="#a03636" stroke="#a03636"></path><path d="M716.4 290L812.2 306L724.4 226Z" fill="#a93636" stroke="#a93636"></path><path d="M633.5 51L583.7 94L641.5 150Z" fill="#973535" stroke="#973535"></path><path d="M641.5 150L583.7 94L578.7 158Z" fill="#a03636" stroke="#a03636"></path><path d="M665.5 535L721.4 471L655.5 457Z" fill="#6a3030" stroke="#6a3030"></path><path d="M432.1 146L326.3 135L418.1 219Z" fill="#a93636" stroke="#a93636"></path><path d="M479.9 126L432.1 96L432.1 146Z" fill="#b33637" stroke="#b33637"></path><path d="M487.9 62L432.1 96L479.9 126Z" fill="#bc3737" stroke="#bc3737"></path><path d="M303.3 365L303.3 450L415.1 394Z" fill="#733131" stroke="#733131"></path><path d="M587.7 600L665.5 535L586.7 517Z" fill="#973535" stroke="#973535"></path><path d="M586.7 517L665.5 535L655.5 457Z" fill="#bc3737" stroke="#bc3737"></path><path d="M261.5 276L303.3 365L345.3 322Z" fill="#6a3030" stroke="#6a3030"></path><path d="M303.3 365L259.5 362L303.3 450Z" fill="#8e3434" stroke="#8e3434"></path><path d="M225.5 217L261.5 276L335.3 222Z" fill="#853333" stroke="#853333"></path><path d="M335.3 222L261.5 276L345.3 322Z" fill="#bc3737" stroke="#bc3737"></path><path d="M583.7 94L487.9 62L479.9 126Z" fill="#7c3232" stroke="#7c3232"></path><path d="M839.2 246L742.4 171L724.4 226Z" fill="#bc3737" stroke="#bc3737"></path><path d="M724.4 226L742.4 171L662.5 204Z" fill="#a93636" stroke="#a93636"></path><path d="M401.1 600L503.9 600L482.9 520Z" fill="#733131" stroke="#733131"></path><path d="M482.9 520L503.9 600L586.7 517Z" fill="#bc3737" stroke="#bc3737"></path><path d="M401.1 600L482.9 520L392.1 502Z" fill="#b33637" stroke="#b33637"></path><path d="M256.5 520L319.3 513L303.3 450Z" fill="#973535" stroke="#973535"></path><path d="M303.3 450L319.3 513L393.1 473Z" fill="#c53737" stroke="#c53737"></path><path d="M344.3 56L326.3 135L432.1 96Z" fill="#a93636" stroke="#a93636"></path><path d="M432.1 96L326.3 135L432.1 146Z" fill="#c53737" stroke="#c53737"></path><path d="M503.9 600L587.7 600L586.7 517Z" fill="#973535" stroke="#973535"></path><path d="M795.2 473L822.2 387L754.4 390Z" fill="#a03636" stroke="#a03636"></path><path d="M665.5 535L718.4 536L721.4 471Z" fill="#973535" stroke="#973535"></path><path d="M670.5 600L718.4 536L665.5 535Z" fill="#a93636" stroke="#a93636"></path><path d="M822.2 387L812.2 306L754.4 390Z" fill="#bc3737" stroke="#bc3737"></path><path d="M754.4 390L812.2 306L716.4 290Z" fill="#6a3030" stroke="#6a3030"></path><path d="M331.3 600L401.1 600L392.1 502Z" fill="#733131" stroke="#733131"></path><path d="M716.4 53L633.5 51L641.5 150Z" fill="#a93636" stroke="#a93636"></path><path d="M583.7 94L564.7 0L487.9 62Z" fill="#8e3434" stroke="#8e3434"></path><path d="M795.2 473L754.4 390L721.4 471Z" fill="#bc3737" stroke="#bc3737"></path><path d="M718.4 536L795.2 473L721.4 471Z" fill="#b33637" stroke="#b33637"></path><path d="M587.7 600L670.5 600L665.5 535Z" fill="#b33637" stroke="#b33637"></path><path d="M718.4 536L805.2 545L795.2 473Z" fill="#a93636" stroke="#a93636"></path><path d="M246.5 91L261.5 154L326.3 135Z" fill="#c53737" stroke="#c53737"></path><path d="M326.3 135L261.5 154L335.3 222Z" fill="#bc3737" stroke="#bc3737"></path><path d="M180.6 353L238.5 463L259.5 362Z" fill="#853333" stroke="#853333"></path><path d="M180.6 353L259.5 362L261.5 276Z" fill="#6a3030" stroke="#6a3030"></path><path d="M259.5 362L238.5 463L303.3 450Z" fill="#8e3434" stroke="#8e3434"></path><path d="M319.3 513L331.3 600L392.1 502Z" fill="#973535" stroke="#973535"></path><path d="M261.5 154L225.5 217L335.3 222Z" fill="#a93636" stroke="#a93636"></path><path d="M397.1 0L344.3 56L432.1 96Z" fill="#a03636" stroke="#a03636"></path><path d="M397.1 0L432.1 96L487.9 62Z" fill="#733131" stroke="#733131"></path><path d="M238.5 463L256.5 520L303.3 450Z" fill="#8e3434" stroke="#8e3434"></path><path d="M812.2 306L839.2 246L724.4 226Z" fill="#853333" stroke="#853333"></path><path d="M742.4 171L716.4 53L641.5 150Z" fill="#853333" stroke="#853333"></path><path d="M900 317L839.2 246L812.2 306Z" fill="#7c3232" stroke="#7c3232"></path><path d="M633.5 51L564.7 0L583.7 94Z" fill="#853333" stroke="#853333"></path><path d="M564.7 0L475.9 0L487.9 62Z" fill="#733131" stroke="#733131"></path><path d="M263.5 600L331.3 600L319.3 513Z" fill="#8e3434" stroke="#8e3434"></path><path d="M633.5 51L664.5 0L564.7 0Z" fill="#7c3232" stroke="#7c3232"></path><path d="M825.2 89L716.4 53L742.4 171Z" fill="#8e3434" stroke="#8e3434"></path><path d="M153.6 293L180.6 353L261.5 276Z" fill="#6a3030" stroke="#6a3030"></path><path d="M157.6 542L263.5 600L256.5 520Z" fill="#a03636" stroke="#a03636"></path><path d="M670.5 600L728.4 600L718.4 536Z" fill="#733131" stroke="#733131"></path><path d="M186.6 165L186.6 240L225.5 217Z" fill="#bc3737" stroke="#bc3737"></path><path d="M225.5 217L186.6 240L261.5 276Z" fill="#a93636" stroke="#a93636"></path><path d="M186.6 165L225.5 217L261.5 154Z" fill="#b33637" stroke="#b33637"></path><path d="M839.2 246L823.2 158L742.4 171Z" fill="#c53737" stroke="#c53737"></path><path d="M475.9 0L397.1 0L487.9 62Z" fill="#b33637" stroke="#b33637"></path><path d="M728.4 600L805.2 545L718.4 536Z" fill="#a03636" stroke="#a03636"></path><path d="M900 355L812.2 306L822.2 387Z" fill="#a03636" stroke="#a03636"></path><path d="M900 355L900 317L812.2 306Z" fill="#973535" stroke="#973535"></path><path d="M742.4 0L664.5 0L716.4 53Z" fill="#7c3232" stroke="#7c3232"></path><path d="M716.4 53L664.5 0L633.5 51Z" fill="#853333" stroke="#853333"></path><path d="M262.5 0L246.5 91L344.3 56Z" fill="#6a3030" stroke="#6a3030"></path><path d="M344.3 56L246.5 91L326.3 135Z" fill="#c53737" stroke="#c53737"></path><path d="M101.8 241L153.6 293L186.6 240Z" fill="#c53737" stroke="#c53737"></path><path d="M186.6 240L153.6 293L261.5 276Z" fill="#a93636" stroke="#a93636"></path><path d="M246.5 91L186.6 165L261.5 154Z" fill="#c53737" stroke="#c53737"></path><path d="M157.6 542L256.5 520L238.5 463Z" fill="#a93636" stroke="#a93636"></path><path d="M256.5 520L263.5 600L319.3 513Z" fill="#7c3232" stroke="#7c3232"></path><path d="M141.6 452L238.5 463L180.6 353Z" fill="#a93636" stroke="#a93636"></path><path d="M900 355L822.2 387L900 426Z" fill="#8e3434" stroke="#8e3434"></path><path d="M839.2 246L900 203L823.2 158Z" fill="#733131" stroke="#733131"></path><path d="M900 426L822.2 387L795.2 473Z" fill="#bc3737" stroke="#bc3737"></path><path d="M397.1 0L318.3 0L344.3 56Z" fill="#853333" stroke="#853333"></path><path d="M246.5 91L161.6 68L186.6 165Z" fill="#b33637" stroke="#b33637"></path><path d="M900 133L825.2 89L823.2 158Z" fill="#853333" stroke="#853333"></path><path d="M823.2 158L825.2 89L742.4 171Z" fill="#6a3030" stroke="#6a3030"></path><path d="M728.4 600L799.2 600L805.2 545Z" fill="#a93636" stroke="#a93636"></path><path d="M900 515L900 426L795.2 473Z" fill="#853333" stroke="#853333"></path><path d="M900 515L795.2 473L805.2 545Z" fill="#7c3232" stroke="#7c3232"></path><path d="M825.2 89L742.4 0L716.4 53Z" fill="#853333" stroke="#853333"></path><path d="M900 317L900 203L839.2 246Z" fill="#733131" stroke="#733131"></path><path d="M90.8 447L141.6 452L73.8 354Z" fill="#973535" stroke="#973535"></path><path d="M318.3 0L262.5 0L344.3 56Z" fill="#853333" stroke="#853333"></path><path d="M141.6 452L157.6 542L238.5 463Z" fill="#a03636" stroke="#a03636"></path><path d="M900 600L900 515L805.2 545Z" fill="#b33637" stroke="#b33637"></path><path d="M900 203L900 133L823.2 158Z" fill="#a03636" stroke="#a03636"></path><path d="M825.2 89L815.2 0L742.4 0Z" fill="#973535" stroke="#973535"></path><path d="M186.6 165L101.8 241L186.6 240Z" fill="#bc3737" stroke="#bc3737"></path><path d="M73.8 354L141.6 452L180.6 353Z" fill="#853333" stroke="#853333"></path><path d="M141.6 452L102.8 545L157.6 542Z" fill="#6a3030" stroke="#6a3030"></path><path d="M63.8 173L101.8 241L186.6 165Z" fill="#a03636" stroke="#a03636"></path><path d="M900 73L815.2 0L825.2 89Z" fill="#a03636" stroke="#a03636"></path><path d="M262.5 0L161.6 68L246.5 91Z" fill="#853333" stroke="#853333"></path><path d="M73.8 354L180.6 353L153.6 293Z" fill="#a93636" stroke="#a93636"></path><path d="M71.8 290L73.8 354L153.6 293Z" fill="#8e3434" stroke="#8e3434"></path><path d="M0 235L71.8 290L101.8 241Z" fill="#a03636" stroke="#a03636"></path><path d="M101.8 241L71.8 290L153.6 293Z" fill="#6a3030" stroke="#6a3030"></path><path d="M900 133L900 73L825.2 89Z" fill="#853333" stroke="#853333"></path><path d="M102.8 545L151.6 600L157.6 542Z" fill="#733131" stroke="#733131"></path><path d="M157.6 542L151.6 600L263.5 600Z" fill="#a03636" stroke="#a03636"></path><path d="M799.2 600L900 600L805.2 545Z" fill="#b33637" stroke="#b33637"></path><path d="M98.8 600L102.8 545L0 600Z" fill="#733131" stroke="#733131"></path><path d="M90.8 447L102.8 545L141.6 452Z" fill="#7c3232" stroke="#7c3232"></path><path d="M161.6 68L63.8 173L186.6 165Z" fill="#b33637" stroke="#b33637"></path><path d="M71.8 290L0 317L73.8 354Z" fill="#7c3232" stroke="#7c3232"></path><path d="M262.5 0L142.6 0L161.6 68Z" fill="#a03636" stroke="#a03636"></path><path d="M161.6 68L90.8 53L63.8 173Z" fill="#a03636" stroke="#a03636"></path><path d="M900 73L900 0L815.2 0Z" fill="#853333" stroke="#853333"></path><path d="M102.8 545L98.8 600L151.6 600Z" fill="#c53737" stroke="#c53737"></path><path d="M0 531L102.8 545L90.8 447Z" fill="#8e3434" stroke="#8e3434"></path><path d="M142.6 0L90.8 53L161.6 68Z" fill="#8e3434" stroke="#8e3434"></path><path d="M0 235L101.8 241L63.8 173Z" fill="#733131" stroke="#733131"></path><path d="M0 235L0 317L71.8 290Z" fill="#bc3737" stroke="#bc3737"></path><path d="M73.8 354L0 382L90.8 447Z" fill="#6a3030" stroke="#6a3030"></path><path d="M0 317L0 382L73.8 354Z" fill="#8e3434" stroke="#8e3434"></path><path d="M0 145L0 235L63.8 173Z" fill="#a03636" stroke="#a03636"></path><path d="M0 382L0 445L90.8 447Z" fill="#bc3737" stroke="#bc3737"></path><path d="M142.6 0L88.8 0L90.8 53Z" fill="#6a3030" stroke="#6a3030"></path><path d="M0 91L0 145L63.8 173Z" fill="#973535" stroke="#973535"></path><path d="M0 91L63.8 173L90.8 53Z" fill="#8e3434" stroke="#8e3434"></path><path d="M0 445L0 531L90.8 447Z" fill="#973535" stroke="#973535"></path><path d="M0 0L0 91L90.8 53Z" fill="#973535" stroke="#973535"></path><path d="M0 531L0 600L102.8 545Z" fill="#8e3434" stroke="#8e3434"></path><path d="M88.8 0L0 0L90.8 53Z" fill="#973535" stroke="#973535"></path></g></svg>