<svg id="visual" viewBox="0 0 960 540" width="960" height="540" xmlns="http://www.w3.org/2000/svg" xmlns:xlink="http://www.w3.org/1999/xlink" version="1.1"><rect x="0" y="0" width="960" height="540" fill="#dab8b2"></rect><path d="M0 300L22.8 302.5C45.7 305 91.3 310 137 279.7C182.7 249.3 228.3 183.7 274 154.7C319.7 125.7 365.3 133.3 411.2 156C457 178.7 503 216.3 548.8 248.3C594.7 280.3 640.3 306.7 686 298C731.7 289.3 777.3 245.7 823 227.7C868.7 209.7 914.3 217.3 937.2 221.2L960 225L960 541L937.2 541C914.3 541 868.7 541 823 541C777.3 541 731.7 541 686 541C640.3 541 594.7 541 548.8 541C503 541 457 541 411.2 541C365.3 541 319.7 541 274 541C228.3 541 182.7 541 137 541C91.3 541 45.7 541 22.8 541L0 541Z" fill="#fa7268"></path><path d="M0 321L22.8 299.8C45.7 278.7 91.3 236.3 137 233.2C182.7 230 228.3 266 274 265C319.7 264 365.3 226 411.2 209.2C457 192.3 503 196.7 548.8 224.5C594.7 252.3 640.3 303.7 686 305.8C731.7 308 777.3 261 823 254.7C868.7 248.3 914.3 282.7 937.2 299.8L960 317L960 541L937.2 541C914.3 541 868.7 541 823 541C777.3 541 731.7 541 686 541C640.3 541 594.7 541 548.8 541C503 541 457 541 411.2 541C365.3 541 319.7 541 274 541C228.3 541 182.7 541 137 541C91.3 541 45.7 541 22.8 541L0 541Z" fill="#f16367"></path><path d="M0 348L22.8 350C45.7 352 91.3 356 137 355.7C182.7 355.3 228.3 350.7 274 356.2C319.7 361.7 365.3 377.3 411.2 380.5C457 383.7 503 374.3 548.8 349.8C594.7 325.3 640.3 285.7 686 288.2C731.7 290.7 777.3 335.3 823 349.8C868.7 364.3 914.3 348.7 937.2 340.8L960 333L960 541L937.2 541C914.3 541 868.7 541 823 541C777.3 541 731.7 541 686 541C640.3 541 594.7 541 548.8 541C503 541 457 541 411.2 541C365.3 541 319.7 541 274 541C228.3 541 182.7 541 137 541C91.3 541 45.7 541 22.8 541L0 541Z" fill="#e85467"></path><path d="M0 370L22.8 380C45.7 390 91.3 410 137 405.3C182.7 400.7 228.3 371.3 274 360.8C319.7 350.3 365.3 358.7 411.2 353.3C457 348 503 329 548.8 339.2C594.7 349.3 640.3 388.7 686 401.2C731.7 413.7 777.3 399.3 823 379.5C868.7 359.7 914.3 334.3 937.2 321.7L960 309L960 541L937.2 541C914.3 541 868.7 541 823 541C777.3 541 731.7 541 686 541C640.3 541 594.7 541 548.8 541C503 541 457 541 411.2 541C365.3 541 319.7 541 274 541C228.3 541 182.7 541 137 541C91.3 541 45.7 541 22.8 541L0 541Z" fill="#de4467"></path><path d="M0 380L22.8 383.8C45.7 387.7 91.3 395.3 137 405C182.7 414.7 228.3 426.3 274 422.3C319.7 418.3 365.3 398.7 411.2 398.3C457 398 503 417 548.8 426.2C594.7 435.3 640.3 434.7 686 430.2C731.7 425.7 777.3 417.3 823 410.8C868.7 404.3 914.3 399.7 937.2 397.3L960 395L960 541L937.2 541C914.3 541 868.7 541 823 541C777.3 541 731.7 541 686 541C640.3 541 594.7 541 548.8 541C503 541 457 541 411.2 541C365.3 541 319.7 541 274 541C228.3 541 182.7 541 137 541C91.3 541 45.7 541 22.8 541L0 541Z" fill="#d23467"></path><path d="M0 441L22.8 450.2C45.7 459.3 91.3 477.7 137 476.7C182.7 475.7 228.3 455.3 274 447.8C319.7 440.3 365.3 445.7 411.2 455.5C457 465.3 503 479.7 548.8 478.2C594.7 476.7 640.3 459.3 686 459.8C731.7 460.3 777.3 478.7 823 481.7C868.7 484.7 914.3 472.3 937.2 466.2L960 460L960 541L937.2 541C914.3 541 868.7 541 823 541C777.3 541 731.7 541 686 541C640.3 541 594.7 541 548.8 541C503 541 457 541 411.2 541C365.3 541 319.7 541 274 541C228.3 541 182.7 541 137 541C91.3 541 45.7 541 22.8 541L0 541Z" fill="#c62368"></path></svg>