<svg id="visual" viewBox="0 0 900 600" width="900" height="600" xmlns="http://www.w3.org/2000/svg" xmlns:xlink="http://www.w3.org/1999/xlink" version="1.1"><path d="M0 55L100 49L200 49L300 43L400 49L500 55L600 43L700 49L800 43L900 43L900 0L800 0L700 0L600 0L500 0L400 0L300 0L200 0L100 0L0 0Z" fill="#00cc8e"></path><path d="M0 85L100 91L200 79L300 79L400 79L500 85L600 85L700 85L800 73L900 85L900 41L800 41L700 47L600 41L500 53L400 47L300 41L200 47L100 47L0 53Z" fill="#00c18c"></path><path d="M0 217L100 205L200 193L300 223L400 217L500 235L600 223L700 229L800 217L900 223L900 83L800 71L700 83L600 83L500 83L400 77L300 77L200 77L100 89L0 83Z" fill="#00b789"></path><path d="M0 277L100 259L200 235L300 283L400 283L500 283L600 277L700 277L800 271L900 271L900 221L800 215L700 227L600 221L500 233L400 215L300 221L200 191L100 203L0 215Z" fill="#00ac86"></path><path d="M0 325L100 295L200 283L300 325L400 319L500 325L600 325L700 325L800 307L900 313L900 269L800 269L700 275L600 275L500 281L400 281L300 281L200 233L100 257L0 275Z" fill="#00a282"></path><path d="M0 463L100 463L200 445L300 433L400 439L500 445L600 469L700 457L800 445L900 439L900 311L800 305L700 323L600 323L500 323L400 317L300 323L200 281L100 293L0 323Z" fill="#00977e"></path><path d="M0 517L100 523L200 523L300 505L400 511L500 505L600 523L700 529L800 511L900 499L900 437L800 443L700 455L600 467L500 443L400 437L300 431L200 443L100 461L0 461Z" fill="#008d79"></path><path d="M0 601L100 601L200 601L300 601L400 601L500 601L600 601L700 601L800 601L900 601L900 497L800 509L700 527L600 521L500 503L400 509L300 503L200 521L100 521L0 515Z" fill="#038373"></path></svg>