<svg id="visual" viewBox="0 0 900 600" width="900" height="600" xmlns="http://www.w3.org/2000/svg" xmlns:xlink="http://www.w3.org/1999/xlink" version="1.1"><rect x="0" y="0" width="900" height="600" fill="#d4d9e3"></rect><g fill="#7378c5"><circle r="35" cx="875" cy="566"></circle><circle r="3" cx="535" cy="192"></circle><circle r="32" cx="225" cy="126"></circle><circle r="22" cx="487" cy="542"></circle><circle r="3" cx="135" cy="176"></circle><circle r="20" cx="789" cy="200"></circle><circle r="20" cx="879" cy="495"></circle><circle r="31" cx="166" cy="242"></circle><circle r="28" cx="258" cy="585"></circle><circle r="21" cx="49" cy="154"></circle><circle r="30" cx="84" cy="513"></circle><circle r="18" cx="93" cy="29"></circle><circle r="31" cx="807" cy="107"></circle><circle r="30" cx="397" cy="586"></circle><circle r="22" cx="711" cy="533"></circle><circle r="6" cx="640" cy="169"></circle><circle r="21" cx="300" cy="189"></circle><circle r="5" cx="170" cy="538"></circle><circle r="16" cx="792" cy="576"></circle><circle r="6" cx="870" cy="296"></circle><circle r="4" cx="155" cy="369"></circle><circle r="30" cx="766" cy="442"></circle><circle r="27" cx="699" cy="296"></circle><circle r="6" cx="550" cy="505"></circle><circle r="4" cx="111" cy="313"></circle><circle r="23" cx="211" cy="442"></circle><circle r="22" cx="533" cy="416"></circle><circle r="23" cx="404" cy="71"></circle><circle r="13" cx="638" cy="445"></circle><circle r="16" cx="853" cy="425"></circle><circle r="2" cx="292" cy="389"></circle><circle r="18" cx="333" cy="321"></circle><circle r="28" cx="45" cy="381"></circle><circle r="25" cx="632" cy="241"></circle><circle r="23" cx="234" cy="265"></circle><circle r="28" cx="788" cy="322"></circle><circle r="28" cx="34" cy="255"></circle><circle r="18" cx="695" cy="404"></circle><circle r="7" cx="320" cy="74"></circle><circle r="10" cx="408" cy="297"></circle><circle r="6" cx="569" cy="294"></circle><circle r="19" cx="618" cy="93"></circle><circle r="11" cx="440" cy="384"></circle><circle r="29" cx="315" cy="477"></circle><circle r="14" cx="434" cy="457"></circle><circle r="18" cx="494" cy="129"></circle><circle r="16" cx="677" cy="54"></circle><circle r="19" cx="586" cy="565"></circle><circle r="17" cx="548" cy="48"></circle><circle r="4" cx="143" cy="463"></circle><circle r="21" cx="638" cy="331"></circle><circle r="11" cx="11" cy="589"></circle><circle r="12" cx="8" cy="483"></circle><circle r="21" cx="405" cy="156"></circle><circle r="12" cx="876" cy="75"></circle><circle r="3" cx="241" cy="23"></circle><circle r="22" cx="827" cy="2"></circle><circle r="24" cx="880" cy="188"></circle><circle r="19" cx="498" cy="278"></circle><circle r="33" cx="744" cy="78"></circle><circle r="16" cx="704" cy="140"></circle><circle r="23" cx="474" cy="53"></circle><circle r="26" cx="23" cy="52"></circle><circle r="7" cx="615" cy="12"></circle><circle r="32" cx="148" cy="90"></circle><circle r="21" cx="373" cy="7"></circle><circle r="33" cx="160" cy="7"></circle><circle r="8" cx="91" cy="583"></circle><circle r="6" cx="375" cy="227"></circle><circle r="2" cx="362" cy="399"></circle><circle r="28" cx="457" cy="212"></circle><circle r="26" cx="1" cy="320"></circle><circle r="7" cx="740" cy="2"></circle><circle r="12" cx="249" cy="505"></circle><circle r="16" cx="663" cy="598"></circle><circle r="19" cx="327" cy="591"></circle><circle r="33" cx="385" cy="509"></circle><circle r="27" cx="803" cy="503"></circle><circle r="31" cx="720" cy="217"></circle><circle r="19" cx="227" cy="354"></circle><circle r="22" cx="898" cy="368"></circle></g></svg>