<svg id="visual" viewBox="0 0 900 600" width="900" height="600" xmlns="http://www.w3.org/2000/svg" xmlns:xlink="http://www.w3.org/1999/xlink" version="1.1"><rect x="0" y="0" width="900" height="600" fill="#dedede"></rect><g fill="#cacaca"><circle r="63" cx="100" cy="244"></circle><circle r="8" cx="567" cy="550"></circle><circle r="12" cx="550" cy="258"></circle><circle r="57" cx="345" cy="370"></circle><circle r="34" cx="886" cy="323"></circle><circle r="48" cx="371" cy="506"></circle><circle r="52" cx="611" cy="133"></circle><circle r="11" cx="771" cy="31"></circle><circle r="21" cx="125" cy="518"></circle><circle r="25" cx="791" cy="578"></circle><circle r="43" cx="480" cy="57"></circle><circle r="22" cx="790" cy="444"></circle><circle r="44" cx="157" cy="80"></circle><circle r="14" cx="713" cy="337"></circle><circle r="48" cx="345" cy="38"></circle><circle r="23" cx="545" cy="418"></circle><circle r="52" cx="844" cy="174"></circle><circle r="33" cx="3" cy="147"></circle><circle r="27" cx="14" cy="388"></circle><circle r="38" cx="294" cy="173"></circle><circle r="10" cx="597" cy="7"></circle><circle r="35" cx="159" cy="391"></circle><circle r="46" cx="18" cy="595"></circle><circle r="23" cx="234" cy="599"></circle><circle r="43" cx="47" cy="11"></circle><circle r="14" cx="396" cy="253"></circle><circle r="18" cx="897" cy="509"></circle></g></svg>