<?xml version="1.0" encoding="UTF-8" standalone="no"?>
<!-- Created with Inkscape (http://www.inkscape.org/) -->

<svg
   width="210mm"
   height="297mm"
   viewBox="0 0 210 297"
   version="1.1"
   id="svg5"
   inkscape:version="1.2.1 (9c6d41e410, 2022-07-14)"
   sodipodi:docname="kamilslimak.svg"
   xmlns:inkscape="http://www.inkscape.org/namespaces/inkscape"
   xmlns:sodipodi="http://sodipodi.sourceforge.net/DTD/sodipodi-0.dtd"
   xmlns="http://www.w3.org/2000/svg"
   xmlns:svg="http://www.w3.org/2000/svg">
  <sodipodi:namedview
     id="namedview7"
     pagecolor="#ffffff"
     bordercolor="#000000"
     borderopacity="0.25"
     inkscape:showpageshadow="2"
     inkscape:pageopacity="0.0"
     inkscape:pagecheckerboard="0"
     inkscape:deskcolor="#d1d1d1"
     inkscape:document-units="mm"
     showgrid="false"
     inkscape:zoom="0.74564394"
     inkscape:cx="138.13564"
     inkscape:cy="563.27153"
     inkscape:window-width="1920"
     inkscape:window-height="1017"
     inkscape:window-x="1912"
     inkscape:window-y="-8"
     inkscape:window-maximized="1"
     inkscape:current-layer="layer1" />
  <defs
     id="defs2" />
  <g
     inkscape:label="Warstwa 1"
     inkscape:groupmode="layer"
     id="layer1">
    <path
       style="fill:#a05a2c;fill-opacity:1;stroke:#000000;stroke-width:0;stroke-linecap:butt;stroke-linejoin:round;stroke-dasharray:none;stroke-opacity:1;paint-order:normal"
       d="m 144.41935,175.29032 c 2.77886,-2.70161 4.49595,-5.68137 5.67742,-9.2258 1.07593,-3.22779 -0.0889,-9.66871 0.70968,-12.06452 0.54769,-1.64307 0.093,-3.48947 0.35484,-5.32258 0.84574,-5.92021 -0.17367,-11.49105 -0.70968,-17.3871 -0.34345,-3.77797 -0.96418,-7.6288 -1.77419,-11.35484 -0.59873,-2.75414 -1.88953,-5.38768 -2.48387,-8.16129 -0.0941,-0.43924 -1.62569,-8.6482 -1.7742,-8.87096 -0.1467,-0.22007 -0.5736,-0.12805 -0.70967,-0.35484 -0.66886,-1.11477 -0.81986,-3.059076 -1.41936,-4.258069 -1.69563,-3.391252 -3.14183,-6.820131 -5.32258,-9.935483 -1.60556,-2.293657 -2.61939,-5.103259 -4.6129,-7.096776 -0.37404,-0.37403 -1.00631,-0.379235 -1.41936,-0.709676 -0.20652,-0.165219 -0.13477,-0.562969 -0.35484,-0.709678 -0.19682,-0.131218 -0.48525,0.07481 -0.70967,0 -2.14872,-0.716238 -4.42332,-1.904217 -6.74194,-2.483872 -5.35039,-1.337595 -10.85637,-2.155433 -16.32258,-2.838709 -6.263,-0.782875 -12.453497,-2.26288 -18.80645,-1.774192 -2.130988,0.163922 -4.283675,1.036915 -6.387097,1.419354 -1.66941,0.30353 -3.738147,0.385472 -5.322581,1.064517 -2.725504,1.168072 0.831221,0.314322 -2.483871,1.419354 -0.572161,0.19072 -1.234757,0.08512 -1.774195,0.354838 -0.448839,0.22442 -0.628814,0.815547 -1.064514,1.064517 -0.423426,0.241956 -0.995931,0.112882 -1.419355,0.354838 -1.43212,0.818356 -2.496343,3.074514 -3.548388,4.258064 -1.107342,1.245762 -2.46363,2.282838 -3.548387,3.548388 -3.187208,3.718409 -6.535277,10.990916 -8.516128,15.612905 -0.71914,1.67799 -0.399061,3.25934 -0.709679,4.96774 -0.11394,0.62668 -0.584761,1.14961 -0.709676,1.77419 -0.741651,3.70825 -0.284482,15.20377 1.774193,18.80645 0.849132,1.48599 2.425118,4.55416 3.548388,5.67743 1.125085,1.12508 2.971003,1.91938 4.258064,2.8387 0.680577,0.48613 1.057018,1.34389 1.774192,1.7742 0.857396,0.51443 4.10219,2.52696 4.612905,3.54839 0.576601,1.1532 2.928636,3.55325 3.193547,4.6129 0.476308,1.90523 1.87293,5.446 3.19355,7.09677 2.706896,3.38362 6.231443,5.33502 9.935482,7.45161 5.550657,3.17181 10.96078,6.36749 16.67742,9.22581 5.40873,2.70436 10.82129,5.98758 16.67742,7.45161 5.20621,1.30156 19.32954,2.79665 24.83871,1.41936 0.75485,-0.18872 1.35235,-2.85852 1.41935,-3.19355 z"
       id="path4042" />
    <path
       sodipodi:type="spiral"
       style="fill:#a05a2c;fill-rule:evenodd;stroke:#000000;stroke-width:2;stroke-dasharray:none;fill-opacity:1"
       id="path112"
       sodipodi:cx="43.645161"
       sodipodi:cy="84.451614"
       sodipodi:expansion="1"
       sodipodi:revolution="3"
       sodipodi:radius="70.701111"
       sodipodi:argument="-18.22814"
       sodipodi:t0="0"
       d="m 43.645161,84.451614 c 2.88215,2.063761 -1.359957,4.903268 -3.430106,4.790324 C 34.605078,88.935866 32.588333,82.148762 34.064514,77.591402 36.705055,69.439354 46.643122,66.891098 53.935479,70.080644 64.637306,74.76143 67.784947,88.213493 62.806455,98.172038 56.170908,111.44521 39.095675,115.20194 26.494631,108.40323 10.637502,99.847749 6.2683033,79.10341 14.903219,63.870978 25.36126,45.422462 49.798307,40.439005 67.655903,50.91935 88.700461,63.270073 94.299307,91.413576 81.967749,111.89246 67.730477,135.53615 35.871798,141.75116 12.774206,127.56453 -13.470744,111.44477 -20.302479,75.865032 -4.2580747,50.150554 13.741322,21.302796 53.04629,13.853915 81.376327,31.758055 112.82804,51.635044 120.89439,94.66829 101.12904,125.61289"
       transform="translate(50.387097,34.064516)" />
    <path
       style="fill:#808080;stroke-width:2;stroke:#000000;stroke-opacity:1;stroke-dasharray:none;stroke-linecap:butt;paint-order:normal;stroke-linejoin:round"
       d="m 15.790322,191.43545 c 1.980261,-1.24533 1.455019,-1.45501 2.483871,-2.48387 0.187016,-0.18701 0.522661,-0.16782 0.709678,-0.35483 0.187016,-0.18702 0.167822,-0.52267 0.354838,-0.70968 0.301554,-0.30156 0.762961,-0.40813 1.064517,-0.70968 0.301554,-0.30156 0.408123,-0.76296 0.709676,-1.06452 2.791206,-2.7912 -0.777512,1.71367 2.129033,-1.77419 0.546029,-0.65524 0.886537,-1.46301 1.419355,-2.12903 0.817761,-1.0222 2.060162,-1.39391 2.838709,-2.48387 0.307454,-0.43044 0.402225,-0.98892 0.709679,-1.41936 2.747663,-3.84673 -0.172855,0.5277 1.774193,-1.41935 0.301553,-0.30156 0.408122,-0.76296 0.709676,-1.06452 0.809577,-0.80957 2.029134,-0.96462 2.838712,-1.77419 0.187015,-0.18702 0.196148,-0.4981 0.354838,-0.70968 0.745865,-0.99449 1.077343,-0.89351 2.12903,-1.41935 0.448842,-0.22442 0.634212,-0.80634 1.064517,-1.06452 0.823576,-0.49415 2.015133,-0.57037 2.838709,-1.06452 0.836258,-0.50175 0.458232,-0.87229 1.419355,-1.06451 0.347948,-0.0696 0.720272,0.0861 1.064516,0 0.324557,-0.0811 0.392301,-0.60389 0.709679,-0.70968 0.224419,-0.0748 0.498091,0.10579 0.709676,0 0.105794,-0.0529 0,-0.23656 0,-0.35484 0.118279,-0.11828 0.196151,-0.30194 0.354841,-0.35484 0.224419,-0.0748 0.485256,0.0748 0.709676,0 0.158689,-0.0529 0.192561,-0.31427 0.354838,-0.35483 0.996912,-0.24923 2.174147,-0.18494 3.193549,-0.35485 1.287217,-0.21453 1.439403,-0.86461 2.83871,-1.06451 0.585454,-0.0836 1.194279,0.11598 1.774192,0 2.449941,-0.48999 4.916268,-0.35484 7.451614,-0.35484 0.88778,0 2.300687,-0.22322 3.193547,0 0.256585,0.0641 0.450334,0.30297 0.709679,0.35484 0.579914,0.11598 1.213144,-0.18702 1.774193,0 0.367548,0.12252 0.712491,0.53367 1.064516,0.70968 0.467297,0.23364 1.276191,-0.166 1.774193,0 0.158689,0.0529 0.196151,0.30194 0.35484,0.35483 0.70498,0.235 3.400738,0.21196 4.258064,0.35485 1.204384,0.20072 2.400205,0.77747 3.548388,1.06451 1.753,0.43825 7.563366,0 9.580645,0 2.689598,0 6.620966,0.41532 8.870954,-0.70968 0.31737,-0.15869 0.714496,0.0583 1.064506,0 0.481046,-0.0802 0.938306,-0.27466 1.419361,-0.35483 0.978685,-0.16312 2.254225,0.3131 3.193555,0 0.98124,-0.32709 2.08483,-1.14218 3.19354,-1.41936 2.51101,-0.62775 4.44646,-1.21084 6.74194,-2.12903 1.13076,-0.45231 2.41628,-0.42665 3.54839,-0.70968 0.25658,-0.0642 0.45033,-0.30297 0.70967,-0.35484 0.34795,-0.0696 0.73506,0.13178 1.06452,0 0.31062,-0.12424 0.41045,-0.56006 0.70968,-0.70968 0.42317,-0.21158 0.96036,0.11475 1.41935,0 0.61283,-0.1532 1.17355,-0.50946 1.77419,-0.70967 0.44038,-0.14679 1.41428,0.06 1.7742,0 0.73789,-0.12298 1.39549,-0.56297 2.12903,-0.70968 1.088,-0.2176 2.42311,0 3.54839,0 2.72043,0 5.44086,0 8.16129,0 1.23906,0 6.87338,-0.28912 7.45161,0 0.14961,0.0748 0.20523,0.28003 0.35484,0.35484 0.45751,0.22875 4.20091,0.27466 4.6129,0 0.27836,-0.18558 0.40218,-0.5779 0.70968,-0.70968 1.34709,-0.57733 4.23079,-1.08552 5.67742,-1.41936 1.78917,-0.41288 3.56383,-0.89172 5.32258,-1.41935 0.50666,-0.15199 0.90066,-0.60594 1.41935,-0.70968 0.34795,-0.0696 0.71657,0.0696 1.06452,0 0.25935,-0.0519 0.47312,-0.23656 0.70968,-0.35484 0.47312,-0.11828 0.93544,-0.29435 1.41935,-0.35483 1.0563,-0.13204 2.12903,0 3.19355,0 2.42239,0 5.04405,-0.26751 7.45161,0 1.47089,0.16343 2.66243,0.71032 3.90323,1.41935 0.73984,0.89395 1.93482,0.61257 2.83871,1.06452 1.24519,0.62259 1.4896,1.2768 2.48387,2.12903 0.89805,0.76975 2.00235,1.29267 2.83871,2.12903 1.39959,1.39959 2.82358,3.51057 3.54839,5.32258 0.27138,0.67847 0.92176,1.41526 1.06451,2.12903 0.13415,0.67071 0.37038,3.51732 0,4.25807 -0.25864,0.51729 -2.98305,2.61257 -3.54838,2.83871 -2.57279,1.02911 0.12149,-0.0243 -1.7742,0.35484 -0.90298,0.18059 -1.6237,0.89248 -2.48387,1.06451 -1.53829,0.30766 -3.11371,0.33488 -4.6129,0.70968 -0.82302,0.20576 -1.99387,0 -2.83871,0 -1.64095,0 -10.17554,-0.3931 -11.35484,0 -0.15869,0.0529 -0.19615,0.30194 -0.35484,0.35484 -0.44884,0.14961 -0.97051,-0.14961 -1.41935,0 -1.86587,0.62195 -5.49399,4.36832 -6.74194,6.03226 -0.54639,0.72852 -0.77118,1.83569 -1.41935,2.48387 -0.18702,0.18701 -0.55099,0.14325 -0.70968,0.35484 -0.22442,0.29922 -0.13042,0.76529 -0.35484,1.06451 -0.43092,0.21546 -0.79359,0.30329 -1.06452,0.70968 -1.05528,1.58293 -2.29045,2.16602 -3.90322,3.54839 -0.0898,0.077 0.0984,0.28923 0,0.35484 -1.04906,0.69937 -2.7426,1.19388 -3.90323,1.77419 -1.06909,0.53454 -2.09786,1.30461 -3.19354,1.77419 -2.04161,0.87498 -5.32281,1.65596 -7.45162,2.12903 -0.73025,0.16228 -1.39114,0.5867 -2.12903,0.70968 -1.18507,0.19751 -2.34249,0.5087 -3.54839,0.70968 -1.44973,0.24162 -3.13815,0 -4.6129,0 -5.16155,0 -10.14744,-0.24508 -15.25806,-0.70968 -1.29574,-0.11779 -2.60665,0.10805 -3.90323,0 -5.32977,-0.44415 -10.655649,-0.93643 -15.967727,-1.41935 -1.413526,-0.1285 -2.844538,0.1285 -4.258064,0 -1.201266,-0.10921 -2.348153,-0.58966 -3.548388,-0.70968 -0.588462,-0.0589 -1.189672,0.0899 -1.774192,0 -0.964018,-0.14831 -1.882294,-0.51839 -2.83871,-0.70968 -3.338115,-0.66762 -6.907149,-1.11179 -10.290323,-1.41935 -2.487522,-0.22614 -4.971028,-0.46162 -7.451614,-0.70968 -3.816707,-0.38167 -7.87719,0 -11.709677,0 -2.666609,0 -5.183489,-0.0925 -7.806452,-0.35484 -1.850207,-0.18502 -3.844179,0.30554 -5.677418,0 -0.368943,-0.0615 -0.694243,-0.30194 -1.064517,-0.35484 -2.551396,-0.36448 -5.248196,0.31979 -7.806452,0 -0.371144,-0.0464 -0.69424,-0.30194 -1.064514,-0.35484 -0.936728,-0.13381 -1.905349,0.15557 -2.838712,0 -0.260882,-0.0435 -0.450331,-0.30297 -0.709676,-0.35483 -0.897686,-0.17954 -1.951179,0.22188 -2.83871,0 -0.513168,-0.1283 -0.906186,-0.58139 -1.419354,-0.70968 -0.114748,-0.0287 -0.310911,0.10982 -0.354839,0 -0.22399,-0.55997 -0.236559,-1.1828 -0.354839,-1.7742 z"
       id="path394" />
    <path
       style="fill:#000000;stroke-width:0.264583"
       d="m 70.612901,166.41935 1.064517,14.19355"
       id="path396" />
    <path
       style="fill:#666666;stroke:#000000;stroke-width:2;stroke-linecap:butt;stroke-linejoin:round;stroke-dasharray:none;stroke-opacity:1;paint-order:normal"
       d="m 169.6129,155.77419 c -0.47937,-2.35375 0.35484,-4.87793 0.35484,-7.09677 0,-2.36559 0,-4.73118 0,-7.09678 0,-0.1934 -0.80683,-0.96736 -0.35484,-1.41935 0.20376,-0.20376 0.69519,-1.41936 1.06452,-1.41936 1.60932,0 3.02142,-0.25819 3.90322,1.06452 0.42305,0.63457 -0.0975,2.17779 -0.70968,2.48387 -0.27826,0.13913 -1.70643,-0.20329 -1.77419,0 -0.33543,1.00629 -0.001,1.06655 -0.35484,1.77419 -0.17673,0.35347 0,2.18451 0,2.48388 0,3.36021 0.30488,6.79189 -2.12903,9.2258 z"
       id="path1193" />
    <path
       style="fill:#666666;stroke:#000000;stroke-width:2;stroke-linecap:butt;stroke-linejoin:round;stroke-dasharray:none;stroke-opacity:1;paint-order:normal"
       d="m 179.19354,156.83871 c 0.89046,-4.89751 0.24536,-2.66502 1.7742,-6.74194 0.70968,-1.89247 1.59723,-3.72747 2.12903,-5.67742 0.12449,-0.45644 -0.21158,-0.99618 0,-1.41935 0.7606,-1.52121 -0.009,-2.82927 1.41936,-4.25807 0.52211,-0.52211 0.18756,-0.35483 1.06451,-0.35483 0.37095,0 1.60032,0.007 1.7742,0.35483 0.0374,0.0748 0.84102,4.8364 0.70967,4.96775 -0.58978,0.58978 -2.25348,-0.10595 -2.83871,1.06451 -0.5156,1.0312 -0.36938,2.17268 -0.70967,3.19355 -0.1058,0.31738 -0.56007,0.41045 -0.70968,0.70968 -0.15869,0.31737 0.11221,0.72788 0,1.06451 -0.35596,1.06787 -1.83498,2.72701 -2.12903,3.90323 -0.10103,0.4041 -0.24805,2.20689 -0.70968,2.48387 -0.54618,0.32771 -1.1828,0.47312 -1.7742,0.70968 z"
       id="path1195" />
    <path
       style="fill:#f9f9f9;stroke:#000000;stroke-width:2;stroke-linecap:butt;stroke-linejoin:round;stroke-dasharray:none;stroke-opacity:1;paint-order:normal"
       d="m 171.3871,162.51613 c 1.41935,-0.82796 2.61487,-2.48387 4.25806,-2.48387 7.43883,0 5.92557,13.27792 -1.41935,8.87096 -1.06978,-0.64186 -2.05856,-1.20793 -2.48388,-2.48387 -0.30297,-0.90893 -0.22901,-3.14828 -0.35483,-3.90322 z"
       id="path1923" />
    <path
       style="fill:#ffb380;stroke:#000000;stroke-width:2;stroke-linecap:butt;stroke-linejoin:round;stroke-dasharray:none;stroke-opacity:1;paint-order:normal"
       d="m 177.41935,161.80645 c -1.13509,0.97459 -2.74768,2.21389 -3.54839,3.54839 -0.30707,0.51178 -0.84279,3.12699 0,3.54838 0.28388,0.14194 0.78065,-0.14193 1.06452,0 0.43379,0.2169 1.5164,0.66116 2.12903,0.35484 1.52263,-0.76131 5.07562,-6.86541 2.48388,-8.16129 -0.14962,-0.0748 -0.19616,-0.40773 -0.35485,-0.35484 -0.65428,0.2181 -1.18279,0.70968 -1.77419,1.06452 z"
       id="path1925" />
    <path
       style="fill:none;stroke:#000000;stroke-width:2;stroke-linecap:butt;stroke-linejoin:round;stroke-dasharray:none;stroke-opacity:1;paint-order:normal"
       d="m 183.09677,178.12903 c -4.39876,-3.48439 -11.96,-1.66968 -15.96774,-5.67742"
       id="path1927" />
  </g>
</svg>
