<svg id="visual" viewBox="0 0 900 600" width="900" height="600" xmlns="http://www.w3.org/2000/svg" xmlns:xlink="http://www.w3.org/1999/xlink" version="1.1"><rect x="0" y="0" width="900" height="600" fill="#0e0600"></rect><path d="M0 307L21.5 301.3C43 295.7 86 284.3 128.8 259C171.7 233.7 214.3 194.3 257.2 174.3C300 154.3 343 153.7 385.8 179.2C428.7 204.7 471.3 256.3 514.2 280.3C557 304.3 600 300.7 642.8 301C685.7 301.3 728.3 305.7 771.2 304.8C814 304 857 298 878.5 295L900 292L900 601L878.5 601C857 601 814 601 771.2 601C728.3 601 685.7 601 642.8 601C600 601 557 601 514.2 601C471.3 601 428.7 601 385.8 601C343 601 300 601 257.2 601C214.3 601 171.7 601 128.8 601C86 601 43 601 21.5 601L0 601Z" fill="#e99456"></path><path d="M0 351L21.5 317C43 283 86 215 128.8 188.5C171.7 162 214.3 177 257.2 171.7C300 166.3 343 140.7 385.8 168.3C428.7 196 471.3 277 514.2 274.3C557 271.7 600 185.3 642.8 162.2C685.7 139 728.3 179 771.2 194.5C814 210 857 201 878.5 196.5L900 192L900 601L878.5 601C857 601 814 601 771.2 601C728.3 601 685.7 601 642.8 601C600 601 557 601 514.2 601C471.3 601 428.7 601 385.8 601C343 601 300 601 257.2 601C214.3 601 171.7 601 128.8 601C86 601 43 601 21.5 601L0 601Z" fill="#de8649"></path><path d="M0 234L21.5 232.3C43 230.7 86 227.3 128.8 238.3C171.7 249.3 214.3 274.7 257.2 271.2C300 267.7 343 235.3 385.8 236C428.7 236.7 471.3 270.3 514.2 274.5C557 278.7 600 253.3 642.8 235.8C685.7 218.3 728.3 208.7 771.2 209.5C814 210.3 857 221.7 878.5 227.3L900 233L900 601L878.5 601C857 601 814 601 771.2 601C728.3 601 685.7 601 642.8 601C600 601 557 601 514.2 601C471.3 601 428.7 601 385.8 601C343 601 300 601 257.2 601C214.3 601 171.7 601 128.8 601C86 601 43 601 21.5 601L0 601Z" fill="#d4783d"></path><path d="M0 241L21.5 267.3C43 293.7 86 346.3 128.8 357C171.7 367.7 214.3 336.3 257.2 327.8C300 319.3 343 333.7 385.8 342.3C428.7 351 471.3 354 514.2 356C557 358 600 359 642.8 363.2C685.7 367.3 728.3 374.7 771.2 356.8C814 339 857 296 878.5 274.5L900 253L900 601L878.5 601C857 601 814 601 771.2 601C728.3 601 685.7 601 642.8 601C600 601 557 601 514.2 601C471.3 601 428.7 601 385.8 601C343 601 300 601 257.2 601C214.3 601 171.7 601 128.8 601C86 601 43 601 21.5 601L0 601Z" fill="#c96a31"></path><path d="M0 316L21.5 335.2C43 354.3 86 392.7 128.8 400C171.7 407.3 214.3 383.7 257.2 383.8C300 384 343 408 385.8 409C428.7 410 471.3 388 514.2 364.3C557 340.7 600 315.3 642.8 323.7C685.7 332 728.3 374 771.2 397C814 420 857 424 878.5 426L900 428L900 601L878.5 601C857 601 814 601 771.2 601C728.3 601 685.7 601 642.8 601C600 601 557 601 514.2 601C471.3 601 428.7 601 385.8 601C343 601 300 601 257.2 601C214.3 601 171.7 601 128.8 601C86 601 43 601 21.5 601L0 601Z" fill="#bf5c25"></path><path d="M0 391L21.5 387.8C43 384.7 86 378.3 128.8 384C171.7 389.7 214.3 407.3 257.2 426.7C300 446 343 467 385.8 481.2C428.7 495.3 471.3 502.7 514.2 495.5C557 488.3 600 466.7 642.8 446C685.7 425.3 728.3 405.7 771.2 411.8C814 418 857 450 878.5 466L900 482L900 601L878.5 601C857 601 814 601 771.2 601C728.3 601 685.7 601 642.8 601C600 601 557 601 514.2 601C471.3 601 428.7 601 385.8 601C343 601 300 601 257.2 601C214.3 601 171.7 601 128.8 601C86 601 43 601 21.5 601L0 601Z" fill="#b44e19"></path><path d="M0 460L21.5 470.2C43 480.3 86 500.7 128.8 512.2C171.7 523.7 214.3 526.3 257.2 522.3C300 518.3 343 507.7 385.8 500C428.7 492.3 471.3 487.7 514.2 491.3C557 495 600 507 642.8 500.7C685.7 494.3 728.3 469.7 771.2 472C814 474.3 857 503.7 878.5 518.3L900 533L900 601L878.5 601C857 601 814 601 771.2 601C728.3 601 685.7 601 642.8 601C600 601 557 601 514.2 601C471.3 601 428.7 601 385.8 601C343 601 300 601 257.2 601C214.3 601 171.7 601 128.8 601C86 601 43 601 21.5 601L0 601Z" fill="#aa3f0c"></path><path d="M0 528L21.5 535.7C43 543.3 86 558.7 128.8 562C171.7 565.3 214.3 556.7 257.2 556.7C300 556.7 343 565.3 385.8 554.7C428.7 544 471.3 514 514.2 515C557 516 600 548 642.8 556.2C685.7 564.3 728.3 548.7 771.2 543.7C814 538.7 857 544.3 878.5 547.2L900 550L900 601L878.5 601C857 601 814 601 771.2 601C728.3 601 685.7 601 642.8 601C600 601 557 601 514.2 601C471.3 601 428.7 601 385.8 601C343 601 300 601 257.2 601C214.3 601 171.7 601 128.8 601C86 601 43 601 21.5 601L0 601Z" fill="#9f3000"></path></svg>