<svg xmlns="http://www.w3.org/2000/svg" width="35" height="35" viewBox="0 0 35 35" fill="none">
<g id="Instagram">
<path id="Vector" d="M17.4956 8.39502C12.5573 8.39502 8.46558 12.4162 8.46558 17.425C8.46558 22.4338 12.4867 26.455 17.4956 26.455C22.5044 26.455 26.5255 22.3633 26.5255 17.425C26.5255 12.4867 22.4338 8.39502 17.4956 8.39502ZM17.4956 23.2098C14.321 23.2098 11.7107 20.5996 11.7107 17.425C11.7107 14.2504 14.321 11.6402 17.4956 11.6402C20.6702 11.6402 23.2804 14.2504 23.2804 17.425C23.2804 20.5996 20.6702 23.2098 17.4956 23.2098Z" fill="#2e2e2e"/>
<path id="Vector_2" d="M26.8784 10.2292C28.0083 10.2292 28.9242 9.3132 28.9242 8.18331C28.9242 7.05341 28.0083 6.13745 26.8784 6.13745C25.7485 6.13745 24.8325 7.05341 24.8325 8.18331C24.8325 9.3132 25.7485 10.2292 26.8784 10.2292Z" fill="#2e2e2e"/>
<path id="Vector_3" d="M32.1693 2.89242C30.3351 0.987654 27.7249 0 24.7619 0H10.2293C4.09171 0 0 4.09171 0 10.2293V24.6914C0 27.7249 0.987654 30.3351 2.96296 32.2399C4.86772 34.0741 7.40741 34.9912 10.2998 34.9912H24.6914C27.7249 34.9912 30.2645 34.0035 32.0988 32.2399C34.0035 30.4056 34.9912 27.7954 34.9912 24.7619V10.2293C34.9912 7.26631 34.0035 4.72663 32.1693 2.89242ZM31.8871 24.7619C31.8871 26.9489 31.1111 28.7125 29.8413 29.9118C28.5714 31.1111 26.8078 31.746 24.6914 31.746H10.2998C8.18342 31.746 6.41975 31.1111 5.14991 29.9118C3.88007 28.642 3.24515 26.8783 3.24515 24.6914V10.2293C3.24515 8.11287 3.88007 6.34921 5.14991 5.07937C6.34921 3.88007 8.18342 3.24515 10.2998 3.24515H24.8324C26.9489 3.24515 28.7125 3.88007 29.9824 5.14991C31.1817 6.41975 31.8871 8.18342 31.8871 10.2293V24.7619Z" fill="#2e2e2e"/>
</g>
</svg>