<svg width="35" height="28" viewBox="0 0 35 28" fill="none" xmlns="http://www.w3.org/2000/svg">
<path d="M29.1667 0.870605H5.83333C2.625 0.870605 0 3.49561 0 6.70394V21.2873C0 24.4956 2.625 27.1206 5.83333 27.1206H29.1667C32.375 27.1206 35 24.4956 35 21.2873V6.70394C35 3.49561 32.375 0.870605 29.1667 0.870605ZM31.5 9.32894L19.9792 17.0581C19.25 17.4956 18.375 17.7873 17.5 17.7873C16.625 17.7873 15.75 17.4956 15.0208 17.0581L3.5 9.32894C2.91667 8.89144 2.77083 8.01644 3.20833 7.28727C3.64583 6.70394 4.52083 6.55811 5.25 6.99561L16.7708 14.7248C17.2083 15.0164 17.9375 15.0164 18.375 14.7248L29.8958 6.99561C30.625 6.55811 31.5 6.70394 31.9375 7.43311C32.2292 8.01644 32.0833 8.89144 31.5 9.32894Z" fill="white"/>
</svg>
