<svg width="37" height="38" viewBox="0 0 37 38" fill="none" xmlns="http://www.w3.org/2000/svg">
<path d="M35.9989 27.6998V32.9687C36.0009 33.4579 35.9005 33.942 35.7042 34.3902C35.5078 34.8384 35.2199 35.2407 34.8587 35.5713C34.4976 35.902 34.0712 36.1538 33.6069 36.3105C33.1426 36.4672 32.6507 36.5254 32.1626 36.4813C26.7474 35.8941 21.5458 34.0474 16.9756 31.0895C12.7236 28.393 9.11871 24.7952 6.41684 20.5517C3.44276 15.9698 1.59192 10.7532 1.01428 5.32452C0.970307 4.83884 1.02814 4.34935 1.1841 3.8872C1.34007 3.42506 1.59074 3.00038 1.92016 2.64022C2.24959 2.28006 2.65055 1.9923 3.09751 1.79526C3.54447 1.59823 4.02764 1.49623 4.51627 1.49578H9.79564C10.6497 1.48739 11.4776 1.78922 12.1252 2.34501C12.7727 2.9008 13.1957 3.67262 13.3152 4.51662C13.538 6.20279 13.9513 7.85838 14.5471 9.45183C14.7838 10.0805 14.8351 10.7636 14.6947 11.4204C14.5544 12.0772 14.2283 12.6801 13.7552 13.1576L11.5202 15.3881C14.0254 19.7851 17.6733 23.4258 22.079 25.926L24.3139 23.6955C24.7924 23.2233 25.3964 22.8978 26.0545 22.7578C26.7127 22.6177 27.3972 22.6688 28.0271 22.9051C29.6237 23.4997 31.2826 23.9121 32.9721 24.1345C33.8269 24.2549 34.6076 24.6846 35.1657 25.342C35.7238 25.9993 36.0203 26.8385 35.9989 27.6998Z" stroke="white" stroke-width="2" stroke-linecap="round" stroke-linejoin="round"/>
</svg>
